<svg width="16" height="16" viewBox="0 0 16 16" fill="none" xmlns="http://www.w3.org/2000/svg">
<path fill-rule="evenodd" clip-rule="evenodd" d="M0.869038 0.86903C1.46804 0.270031 2.43921 0.270031 3.03821 0.869031L7.73808 5.5689L12.4379 0.86903C13.0369 0.270031 14.0081 0.270031 14.6071 0.86903C15.2061 1.46803 15.2061 2.4392 14.6071 3.0382L9.90725 7.73807L14.6071 12.4379C15.2061 13.0369 15.2061 14.0081 14.6071 14.6071C14.0081 15.2061 13.0369 15.2061 12.4379 14.6071L7.73808 9.90724L3.03821 14.6071C2.43921 15.2061 1.46804 15.2061 0.869038 14.6071C0.270038 14.0081 0.270038 13.0369 0.869038 12.4379L5.56891 7.73807L0.869038 3.0382C0.270038 2.4392 0.270038 1.46803 0.869038 0.86903Z" fill="#EA596F"/>
</svg>
